<?xml version="1.0" encoding="UTF-8"?>
<svg version="1.1" xmlns="http://www.w3.org/2000/svg" width="1536" height="1024">
<path d="M0 0 C4.13214731 0.95080504 7.22600309 0.0195498 11.140625 -1.27734375 C12.20144287 -1.6175354 12.20144287 -1.6175354 13.28369141 -1.96459961 C14.76919916 -2.44815731 16.25256549 -2.93833572 17.73388672 -3.43457031 C39.28213757 -10.60684793 71.5514474 -18.25108526 93.19921875 -9.25 C95.140625 -8.27734375 95.140625 -8.27734375 96.140625 -7.27734375 C96.18143283 -5.27776011 96.18316856 -3.27689121 96.140625 -1.27734375 C96.98625 -1.16777344 97.831875 -1.05820312 98.703125 -0.9453125 C100.4046875 -0.70748047 100.4046875 -0.70748047 102.140625 -0.46484375 C103.254375 -0.31402344 104.368125 -0.16320312 105.515625 -0.0078125 C108.36097127 0.5655493 110.68951124 1.23628949 113.3671875 2.26831055 C114.07697754 2.54015671 114.78676758 2.81200287 115.51806641 3.09208679 C116.05351074 3.30017471 116.58895508 3.50826263 117.140625 3.72265625 C118.15499013 29.06420623 118.29828405 54.38619538 118.27099609 79.74560547 C118.26518284 85.22740037 118.26866877 90.70914753 118.27456856 96.19094086 C118.2781624 100.44578419 118.27704306 104.70061593 118.27444077 108.95545959 C118.27377416 110.98096218 118.27459063 113.00646581 118.27692032 115.03196716 C118.27943969 117.82537715 118.27562189 120.61870553 118.27001953 123.41210938 C118.27204376 124.24498978 118.27406799 125.07787018 118.27615356 125.93598938 C118.25491253 131.60836872 118.25491253 131.60836872 117.140625 132.72265625 C115.04080137 132.86952089 112.93630053 132.95024703 110.83203125 133.00390625 C109.52685547 133.04128906 108.22167969 133.07867188 106.87695312 133.1171875 C105.48568843 133.15278977 104.09441217 133.18794301 102.703125 133.22265625 C100.01676565 133.29126598 97.33070133 133.36514689 94.64453125 133.44140625 C93.44642822 133.47169922 92.2483252 133.50199219 91.01391602 133.53320312 C88.09289144 133.67607833 85.25888934 133.91357257 82.35766602 134.23632812 C76.94696099 134.80195732 71.59960153 134.83256841 66.1640625 134.78515625 C65.15397125 134.78136963 64.14388 134.77758301 63.10317993 134.77368164 C59.90728253 134.76157468 56.71148023 134.74295046 53.515625 134.72265625 C49.29427305 134.69593883 45.07296769 134.67601145 40.8515625 134.66015625 C39.8961557 134.65185791 38.9407489 134.64355957 37.95639038 134.63500977 C27.53472955 134.45049985 27.53472955 134.45049985 17.828125 137.72265625 C11.76231888 141.0693079 5.63364847 141.90140517 -1.15234375 140.12109375 C-3.79175166 139.14060076 -6.32086583 138.0209327 -8.78466797 136.65625 C-11.17572006 135.58030469 -13.06682897 135.34796638 -15.6796875 135.16015625 C-16.67000977 135.08667969 -17.66033203 135.01320313 -18.68066406 134.9375 C-20.31600098 134.83115234 -20.31600098 134.83115234 -21.984375 134.72265625 C-23.70479004 134.60083984 -23.70479004 134.60083984 -25.45996094 134.4765625 C-33.21647436 133.95369667 -40.97580071 133.56609951 -48.7421875 133.22265625 C-49.67914459 133.18068115 -50.61610168 133.13870605 -51.58145142 133.09545898 C-56.27930728 132.88643045 -60.9772329 132.68838865 -65.67626953 132.5078125 C-67.43002237 132.43381499 -69.18376628 132.35960554 -70.9375 132.28515625 C-72.13295944 132.24455078 -72.13295944 132.24455078 -73.35256958 132.203125 C-78.1599808 131.98945943 -82.28266048 131.2234176 -86.859375 129.72265625 C-87.484375 127.34765625 -87.484375 127.34765625 -87.859375 124.72265625 C-84.53943494 121.40271619 -80.50005377 121.59762629 -75.98413086 121.59326172 C-74.57127052 121.58853348 -74.57127052 121.58853348 -73.12986755 121.58370972 C-72.12150345 121.58573395 -71.11313934 121.58775818 -70.07421875 121.58984375 C-69.02214737 121.58888702 -67.97007599 121.5879303 -66.88612366 121.58694458 C-64.65951477 121.58626471 -62.43290389 121.58810555 -60.20629883 121.59228516 C-56.8334495 121.59759863 -53.46073562 121.59235304 -50.08789062 121.5859375 C-47.91666638 121.58659905 -45.74544221 121.58788179 -43.57421875 121.58984375 C-42.58002426 121.58781952 -41.58582977 121.58579529 -40.56150818 121.58370972 C-33.61880779 121.60641215 -26.76900015 122.05427944 -19.859375 122.72265625 C-25.88713411 120.56315807 -31.71080583 119.02560668 -38.046875 118.09765625 C-38.8821875 117.97285889 -39.7175 117.84806152 -40.578125 117.71948242 C-52.38249826 116.01161083 -63.91448056 115.67765845 -75.828125 115.703125 C-77.08206055 115.70453491 -78.33599609 115.70594482 -79.62792969 115.70739746 C-82.705083 115.71106074 -85.78222652 115.71618881 -88.859375 115.72265625 C-88.90605041 99.45923122 -88.94134191 83.19582784 -88.96299934 66.93235207 C-88.97332156 59.38131092 -88.98739988 51.83031134 -89.01025391 44.27929688 C-89.03015893 37.69951519 -89.04308456 31.11976359 -89.04755199 24.53995264 C-89.05016429 21.05446611 -89.05632378 17.5690657 -89.07083511 14.08360672 C-89.08688537 10.19715993 -89.08735655 6.31079816 -89.08642578 2.42431641 C-89.09361633 1.26266464 -89.10080688 0.10101288 -89.10821533 -1.09584045 C-89.105466 -2.15035904 -89.10271667 -3.20487762 -89.09988403 -4.29135132 C-89.10172762 -5.21130072 -89.10357121 -6.13125011 -89.10547066 -7.07907677 C-88.859375 -9.27734375 -88.859375 -9.27734375 -86.859375 -11.27734375 C-60.43184954 -18.03585846 -24.65448907 -10.62373084 0 0 Z M-77.859375 -2.27734375 C-77.859375 33.36265625 -77.859375 69.00265625 -77.859375 105.72265625 C-72.249375 105.72265625 -66.639375 105.72265625 -60.859375 105.72265625 C-43.83438597 106.27631443 -27.1027267 108.73376583 -11.05078125 114.57421875 C-7.70525247 115.77811772 -4.27812144 116.74587155 -0.859375 117.72265625 C-0.859375 82.08265625 -0.859375 46.44265625 -0.859375 9.72265625 C-9.18180431 6.5217219 -16.96241968 3.60021816 -25.546875 1.53515625 C-26.59907227 1.2810498 -27.65126953 1.02694336 -28.73535156 0.76513672 C-44.68754438 -2.84965749 -61.61568597 -4.30780488 -77.859375 -2.27734375 Z M12.43408203 8.30053711 C11.34724121 8.76983643 10.26040039 9.23913574 9.140625 9.72265625 C9.11740791 22.4579422 9.09966225 35.19322308 9.08881283 47.92852592 C9.08360446 53.84265773 9.0765441 59.756775 9.06518555 65.67089844 C9.05428379 71.38322212 9.04833275 77.09553186 9.04574776 82.80786514 C9.04390662 84.9822321 9.0403114 87.15659833 9.03489494 89.33095932 C9.02758771 92.38715995 9.02663812 95.4433037 9.02709961 98.49951172 C9.02350433 99.38928207 9.01990906 100.27905243 9.01620483 101.19578552 C9.02577674 107.09176512 9.45278905 112.86758828 10.140625 118.72265625 C11.25244141 118.37654297 11.25244141 118.37654297 12.38671875 118.0234375 C14.65807533 117.32006759 16.93177721 116.62425213 19.20703125 115.93359375 C21.81108198 115.14085849 24.39797631 114.30939494 26.98046875 113.44921875 C42.90535443 108.27607938 59.214256 106.73857573 75.88671875 106.14453125 C76.97754761 106.10247559 78.06837646 106.06041992 79.19226074 106.01708984 C81.84160415 105.91544334 84.49102527 105.81734146 87.140625 105.72265625 C87.27963992 96.5346421 87.38625223 87.34698982 87.45149803 78.15815353 C87.48281304 73.89135346 87.52528696 69.62527274 87.59326172 65.35888672 C87.65845128 61.24154851 87.69432977 57.12490214 87.70988846 53.00708771 C87.72097583 51.43610998 87.74262793 49.86517018 87.77500534 48.294487 C87.81856938 46.09360449 87.82456002 43.89558017 87.82177734 41.69433594 C87.83510101 40.44191101 87.84842468 39.18948608 87.8621521 37.89910889 C87.41974106 34.45641811 87.41974106 34.45641811 84.23794556 32.32012939 C79.93723866 30.10199806 76.86568443 29.91970497 72.140625 30.72265625 C69.00658653 31.82431826 66.0746236 33.16895487 63.140625 34.72265625 C63.635625 33.73265625 63.635625 33.73265625 64.140625 32.72265625 C64.22729755 30.09638492 64.25622635 27.49703142 64.23828125 24.87109375 C64.23615883 23.71004623 64.23615883 23.71004623 64.23399353 22.52554321 C64.22838903 20.04954183 64.21583583 17.57363037 64.203125 15.09765625 C64.19811058 13.42057422 64.19354757 11.74349078 64.18945312 10.06640625 C64.17841815 5.95178819 64.16115054 1.83723747 64.140625 -2.27734375 C46.77573343 -2.51820509 28.37374977 1.41776731 12.43408203 8.30053711 Z M96.140625 8.72265625 C96.140625 43.70265625 96.140625 78.68265625 96.140625 114.72265625 C84.920625 115.05265625 73.700625 115.38265625 62.140625 115.72265625 C50.29188297 117.10500949 39.42677633 119.04157709 28.140625 122.72265625 C28.140625 123.05265625 28.140625 123.38265625 28.140625 123.72265625 C44.01991981 123.81904044 59.88953081 123.51741612 75.765625 123.22265625 C84.799375 123.05765625 93.833125 122.89265625 103.140625 122.72265625 C103.140625 85.76265625 103.140625 48.80265625 103.140625 10.72265625 C99.4387674 8.49904945 99.4387674 8.49904945 96.140625 8.72265625 Z " fill="#131518" transform="translate(496.859375,419.27734375)"/>
<path d="M0 0 C0 5.28 0 10.56 0 16 C-1.69125 16.103125 -3.3825 16.20625 -5.125 16.3125 C-9.68858121 16.73538011 -13.15292748 17.3366421 -17 20 C-18.74237718 22.8235585 -19.2542453 24.98010877 -19.28710938 28.27441406 C-19.30723083 29.52656708 -19.30723083 29.52656708 -19.32775879 30.80401611 C-19.33303589 31.69884705 -19.33831299 32.59367798 -19.34375 33.515625 C-19.3583728 34.44542175 -19.37299561 35.37521851 -19.38806152 36.33319092 C-19.43452104 39.30541691 -19.46872148 42.27757784 -19.5 45.25 C-19.54134735 49.1512812 -19.59515066 53.05210872 -19.65625 56.953125 C-19.6615271 57.83985901 -19.6668042 58.72659302 -19.67224121 59.64019775 C-19.82512596 69.29787666 -21.83395489 78.67499965 -28.77734375 85.83203125 C-31.4056722 88.11584308 -34.10077153 90.06718102 -37 92 C-36.34773438 92.38929688 -35.69546875 92.77859375 -35.0234375 93.1796875 C-27.92355106 97.72445257 -22.63012008 102.69481769 -20.459198 111.09178162 C-19.11501786 117.3996988 -18.7197038 123.39078128 -18.7265625 129.828125 C-18.70629414 131.86458903 -18.68544379 133.90104735 -18.6640625 135.9375 C-18.64140099 139.10616971 -18.62495484 142.27461207 -18.61914062 145.44335938 C-18.60961875 148.53035081 -18.57587638 151.61635523 -18.5390625 154.703125 C-18.54410797 155.64698059 -18.54915344 156.59083618 -18.55435181 157.56329346 C-18.4705193 163.17746138 -17.87424801 166.62011362 -14 171 C-7.40287276 174.3585375 -0.28196808 175.05645231 7 176 C8.4700271 180.4100813 8.91036877 184.97188116 6.98828125 189.25390625 C6.49908203 190.11822266 6.49908203 190.11822266 6 191 C-6.62831212 191.81962603 -21.86671026 189.91329627 -31.796875 181.47265625 C-43.48127892 169.18089471 -41.11903699 151.11019482 -40.90405273 135.51049805 C-40.30930401 121.36876498 -40.30930401 121.36876498 -44.625 108.1875 C-49.74658063 103.47025468 -55.33410743 101.90454074 -62 100 C-62 95.05 -62 90.1 -62 85 C-60.63875 84.5875 -59.2775 84.175 -57.875 83.75 C-51.4609439 81.57506104 -47.15622789 78.98954481 -43.76171875 73.07421875 C-41.76825687 67.64586871 -41.88650495 61.85903817 -42.0078125 56.15234375 C-42.02534848 54.64388716 -42.04225483 53.13542315 -42.05859375 51.62695312 C-42.08928344 49.29283153 -42.12456666 46.95910069 -42.17138672 44.62524414 C-42.67960207 17.78405005 -42.67960207 17.78405005 -34.66015625 8.54296875 C-31.9888242 6.06020131 -29.34096571 4.43779605 -26 3 C-25.39027344 2.70222656 -24.78054688 2.40445312 -24.15234375 2.09765625 C-16.45101505 -1.1223598 -8.17762758 -0.19317231 0 0 Z " fill="#14171A" transform="translate(412,383)"/>
<path d="M0 0 C0.33 9.9 0.66 19.8 1 30 C7.65845624 22.60880013 7.65845624 22.60880013 14.0625 15 C14.73023438 14.18660156 15.39796875 13.37320312 16.0859375 12.53515625 C18.06843637 10.03768261 18.06843637 10.03768261 19.5390625 7.18359375 C21.48756933 3.93762147 22.83179879 2.12496087 26 0 C32.86091883 -1.50591944 40.01567475 -1.25945026 47 -1 C45.58079827 3.4603483 43.1338319 6.32845936 39.9375 9.625 C35.4495357 14.37848067 31.25057133 19.28065329 27.1484375 24.375 C23.88758518 28.35916865 20.45656529 32.18553422 17 36 C18.44168071 40.43907336 20.88776995 43.50305266 23.9375 46.9375 C32.04832434 56.29136255 39.63624805 66.04898385 47 76 C46.67 76.66 46.34 77.32 46 78 C29.40375519 79.13784245 29.40375519 79.13784245 24.19873047 75.86865234 C20.97009886 72.78025745 18.72665617 69.00754737 16.42041016 65.21044922 C13.68839262 60.95887019 10.44999462 57.08059408 7.3125 53.125 C5.229375 50.44375 3.14625 47.7625 1 45 C0.67 55.56 0.34 66.12 0 77 C-9.405 77.495 -9.405 77.495 -19 78 C-19 52.26 -19 26.52 -19 0 C-2 -1 -2 -1 0 0 Z " fill="#141619" transform="translate(664,409)"/>
<path d="M0 0 C0.825 0.70125 1.65 1.4025 2.5 2.125 C3.0775 2.599375 3.655 3.07375 4.25 3.5625 C8.12507946 8.40634933 7.7650629 13.6964923 7.6953125 19.58203125 C7.6924826 20.48499435 7.68965271 21.38795746 7.68673706 22.31828308 C7.67557607 25.19149234 7.65047897 28.06438555 7.625 30.9375 C7.61496493 32.88996944 7.60584 34.84244379 7.59765625 36.79492188 C7.57565008 41.57173566 7.54114831 46.34831431 7.5 51.125 C1.89 51.125 -3.72 51.125 -9.5 51.125 C-9.47679687 49.04058594 -9.45359375 46.95617187 -9.4296875 44.80859375 C-9.41405011 42.76978157 -9.40192872 40.7309763 -9.39013672 38.69213867 C-9.38013443 37.28488124 -9.36652822 35.8776443 -9.34912109 34.47045898 C-9.32461634 32.43728552 -9.31345917 30.40438894 -9.3046875 28.37109375 C-9.29421387 27.15091553 -9.28374023 25.9307373 -9.27294922 24.67358398 C-9.57694476 19.92242782 -10.04731836 15.57768164 -13.5 12.125 C-19.46393121 11.41183266 -19.46393121 11.41183266 -24.4375 14.4375 C-27.68340089 18.66700722 -27.66762043 21.99171508 -27.81640625 27.19921875 C-27.83718735 27.8830513 -27.85796844 28.56688385 -27.87937927 29.2714386 C-27.94466154 31.4516921 -28.00366017 33.63206405 -28.0625 35.8125 C-28.10570553 37.29232986 -28.14932047 38.77214783 -28.19335938 40.25195312 C-28.30032083 43.87617622 -28.40164823 47.50053189 -28.5 51.125 C-32.32286612 51.78947332 -35.92916721 52.26178553 -39.8125 52.25 C-41.10607422 52.25386719 -41.10607422 52.25386719 -42.42578125 52.2578125 C-44.5 52.125 -44.5 52.125 -45.5 51.125 C-45.59340434 49.49825222 -45.61745171 47.86745949 -45.61352539 46.23803711 C-45.61344986 45.19703354 -45.61337433 44.15602997 -45.61329651 43.08348083 C-45.60813522 41.9512056 -45.60297394 40.81893036 -45.59765625 39.65234375 C-45.5962413 38.49956436 -45.59482635 37.34678497 -45.59336853 36.15907288 C-45.58775005 32.46018936 -45.57519442 28.76136536 -45.5625 25.0625 C-45.55748738 22.56184983 -45.55292406 20.06119871 -45.54882812 17.56054688 C-45.53777462 11.41534412 -45.52101852 5.27017631 -45.5 -0.875 C-42.90483479 -2.17258261 -40.95816973 -2.00769102 -38.0625 -2 C-37.09441406 -2.00257813 -36.12632812 -2.00515625 -35.12890625 -2.0078125 C-32.5 -1.875 -32.5 -1.875 -29.5 -0.875 C-28.3125 1.6875 -28.3125 1.6875 -27.5 4.125 C-26.84 3.526875 -26.18 2.92875 -25.5 2.3125 C-17.59774771 -3.44955896 -8.86407699 -4.74861267 0 0 Z " fill="#141619" transform="translate(898.5,434.875)"/>
<path d="M0 0 C5.26947183 5.15237246 7.81866322 10.34172759 8.1796875 17.625 C8.18667148 21.08905573 8.13125922 24.53864576 8 28 C4.4591786 29.1802738 1.37644627 29.0238386 -2.29296875 28.87890625 C-3.35201164 28.84348976 -3.35201164 28.84348976 -4.43244934 28.80735779 C-6.68434507 28.73087055 -8.93588387 28.64678253 -11.1875 28.5625 C-12.71547741 28.50926432 -14.24347216 28.45652401 -15.77148438 28.40429688 C-19.51454835 28.27527576 -23.25731019 28.13943788 -27 28 C-26.21787763 29.30547772 -25.42878127 30.60677917 -24.63671875 31.90625 C-24.19803467 32.63134766 -23.75935059 33.35644531 -23.30737305 34.10351562 C-22.06571674 36.14685126 -22.06571674 36.14685126 -19.8125 37.5 C-12.43090011 38.81228442 -6.25336846 38.13356336 0.7734375 35.55859375 C3 35 3 35 7 36 C7 39.3 7 42.6 7 46 C-4.2721356 51.21546573 -15.60511771 53.29464604 -27.71875 49.02734375 C-34.98656277 45.75433903 -38.73471781 41.66414789 -42.08984375 34.46484375 C-45.29490346 25.78504686 -44.52079394 17.42045394 -41 9 C-37.32775346 2.05545456 -32.28005485 -1.30929173 -25 -4 C-16.43831127 -6.14042218 -7.30561089 -5.10414332 0 0 Z M-24 9.125 C-26.48298106 12.25646527 -26.48298106 12.25646527 -27 18 C-20.73 18 -14.46 18 -8 18 C-6.53435085 13.26896445 -6.53435085 13.26896445 -8.3125 10.25 C-9.80434405 7.91148898 -9.80434405 7.91148898 -12 7 C-16.78122289 6.34246444 -19.98803489 6.28319138 -24 9.125 Z " fill="#141619" transform="translate(752,437)"/>
<path d="M0 0 C3.67813975 7.82893766 6.47396398 15.87669373 9.25 24.0625 C10.8175 28.661875 12.385 33.26125 14 38 C17.96 25.79 21.92 13.58 26 1 C39 0 39 0 43 2 C40.45646706 8.94233119 37.9111232 15.8839964 35.36450195 22.82519531 C34.49787055 25.18799686 33.63165825 27.55095218 32.76586914 29.9140625 C31.52339317 33.30509023 30.27942511 36.69556729 29.03515625 40.0859375 C28.64658951 41.14743011 28.25802277 42.20892273 27.85768127 43.30258179 C27.49738327 44.28344757 27.13708527 45.26431335 26.76586914 46.27490234 C26.44832169 47.14094086 26.13077423 48.00697937 25.80360413 48.89926147 C25 51 25 51 24 53 C17.0665179 54.64063877 9.98575474 53.82051527 3 53 C-1.13011212 43.44783524 -4.77104288 33.73501731 -8.35864258 23.96923828 C-9.32398335 21.34376835 -10.29557843 18.7206672 -11.26757812 16.09765625 C-11.88318624 14.42722102 -12.49843431 12.75665305 -13.11328125 11.0859375 C-13.40382889 10.30270111 -13.69437653 9.51946472 -13.99372864 8.7124939 C-16 3.22952434 -16 3.22952434 -16 1 C-10.63448968 -0.12958112 -5.4487449 -0.07892229 0 0 Z " fill="#131519" transform="translate(778,433)"/>
<path d="M0 0 C4.74375 -0.0825 9.4875 -0.165 14.375 -0.25 C15.8501709 -0.28641602 17.3253418 -0.32283203 18.84521484 -0.36035156 C27.77991376 -0.4351593 35.21810326 0.2289107 42.40234375 5.89453125 C49.38956614 14.62411444 51.51057133 22.75316312 50.8203125 33.90234375 C49.75493182 41.65353174 46.88844278 47.75847167 40.81640625 52.8203125 C27.67970828 61.99163284 18.06323086 59 0 59 C0 39.53 0 20.06 0 0 Z M11 8 C9.30803496 11.38393008 9.88013451 15.22477791 9.90234375 18.9453125 C9.9037587 19.8303244 9.90517365 20.7153363 9.90663147 21.62716675 C9.9122386 24.45981191 9.92479229 27.29237864 9.9375 30.125 C9.94251408 32.04296761 9.94707715 33.96093646 9.95117188 35.87890625 C9.96221034 40.58596782 9.97947975 45.2929706 10 50 C17.21017055 52.40339018 24.04069334 51.25242442 30.87109375 48.1953125 C35.27737542 45.72132683 37.61742649 41.78137963 39.4609375 37.15234375 C41.28033203 29.88794965 40.81214309 22.4412073 37 16 C32.454972 10.75573692 28.84568057 8.74680152 22 8 C18.33158368 7.92410173 14.66855443 7.94125091 11 8 Z " fill="#131517" transform="translate(643,509)"/>
<path d="M0 0 C1.06734375 0.0009668 1.06734375 0.0009668 2.15625 0.00195312 C5.66631673 0.03142197 8.5710576 0.3302644 12 1.1875 C12 16.0375 12 30.8875 12 46.1875 C7 45.1875 7 45.1875 5 44.1875 C-0.86147917 43.57790617 -4.81931986 44.22711135 -10 47.1875 C-10.99 47.1875 -11.98 47.1875 -13 47.1875 C-12.67 32.3375 -12.34 17.4875 -12 2.1875 C-7.69943934 0.03721967 -4.65029193 -0.0800322 0 0 Z " fill="#F7A026" transform="translate(573,406.8125)"/>
<path d="M0 0 C2.12649436 3.45555334 2.65390975 5.40611391 2.81640625 9.4453125 C2.85830078 10.43144531 2.90019531 11.41757812 2.94335938 12.43359375 C2.98267578 13.46613281 3.02199219 14.49867188 3.0625 15.5625 C3.10568359 16.60277344 3.14886719 17.64304687 3.19335938 18.71484375 C3.2996288 21.28892528 3.40166583 23.86310508 3.5 26.4375 C4.82 26.4375 6.14 26.4375 7.5 26.4375 C7.5 29.0775 7.5 31.7175 7.5 34.4375 C4.28707942 36.04396029 0.9741348 36.06191428 -2.5 35.4375 C-5.5 32.9375 -5.5 32.9375 -7.5 30.4375 C-8.098125 31.076875 -8.69625 31.71625 -9.3125 32.375 C-13.14541023 35.98888678 -17.05271607 35.72468359 -22.05859375 35.64453125 C-25.36697289 35.3639807 -27.06916119 34.72101525 -29.5 32.4375 C-31.86665555 28.5439699 -32.87195705 25.70113312 -32 21.25 C-30.77752256 17.37257155 -29.01783842 15.56456509 -25.5 13.4375 C-21.53172855 11.55706475 -18.05710485 11.07732454 -13.6875 10.8125 C-12.52605469 10.73773437 -11.36460937 10.66296875 -10.16796875 10.5859375 C-8.84732422 10.51246094 -8.84732422 10.51246094 -7.5 10.4375 C-7.83 8.4575 -8.16 6.4775 -8.5 4.4375 C-15.47669157 4.04424181 -21.01656189 4.80653961 -27.5 7.4375 C-28.5 6.4375 -28.5 6.4375 -28.5625 2.875 C-28.541875 1.740625 -28.52125 0.60625 -28.5 -0.5625 C-19.21067112 -5.79830355 -8.33652897 -8.5449422 0 0 Z M-21.5 20.4375 C-21.66687448 22.85395782 -21.66687448 22.85395782 -21.5 25.4375 C-19.57553704 27.77734763 -19.57553704 27.77734763 -16.1875 27.8125 C-11.89831966 27.37631217 -10.31610014 26.68028198 -7.5 23.4375 C-7.08190799 20.26901973 -7.08190799 20.26901973 -7.5 17.4375 C-13.17276511 17.14408112 -16.49067246 17.43190348 -21.5 20.4375 Z " fill="#151719" transform="translate(1019.5,533.5625)"/>
<path d="M0 0 C4.52733002 2.68392349 6.79307631 6.44172892 8.4375 11.375 C9.09985564 18.82176989 9.59910315 25.63964866 4.9375 31.82421875 C0.21664441 36.70489497 -4.48308433 38.52485032 -11.125 38.75 C-17.54154332 38.65678145 -22.52275046 37.47497906 -27.5625 33.375 C-31.70266325 28.09465636 -33.36803574 22.43415593 -32.98046875 15.76171875 C-32.02993658 10.33391357 -29.74811091 6.15433344 -25.625 2.5 C-18.19264387 -2.65714507 -8.40336265 -3.79099067 0 0 Z M-20.5625 10.375 C-23.08720277 13.86149431 -22.92476929 17.17267625 -22.5625 21.375 C-21.0013359 25.43402667 -19.54823434 28.43599411 -15.5625 30.375 C-10.774679 30.90698011 -8.69847455 31.10009014 -4.625 28.5 C-0.89344105 24.6553635 -1.23272517 21.31890399 -1.2734375 16.1484375 C-1.69471225 12.10647707 -2.82776836 10.34413721 -5.5625 7.375 C-11.73112826 5.31879058 -15.95705551 5.63797138 -20.5625 10.375 Z " fill="#131517" transform="translate(848.5625,530.625)"/>
<path d="M0 0 C3.79255744 3.16046454 5.62451896 5.77764004 7 10.5 C7.15258789 13.33959961 7.15258789 13.33959961 7.09765625 16.27734375 C7.08355713 17.25823975 7.06945801 18.23913574 7.05493164 19.24975586 C7.0368042 19.99233643 7.01867676 20.73491699 7 21.5 C3.22918278 21.52899599 -0.54160583 21.54679729 -4.3125 21.5625 C-5.9202832 21.57506836 -5.9202832 21.57506836 -7.56054688 21.58789062 C-9.10258789 21.59272461 -9.10258789 21.59272461 -10.67578125 21.59765625 C-11.62364502 21.60289307 -12.57150879 21.60812988 -13.5480957 21.61352539 C-16 21.5 -16 21.5 -19 20.5 C-17.41037223 25.47790402 -17.41037223 25.47790402 -13.8125 28.9375 C-8.02604148 30.0947917 -3.42082691 29.9780923 2 27.5 C2.99 27.5 3.98 27.5 5 27.5 C5.495 30.965 5.495 30.965 6 34.5 C-1.3908272 38.58776615 -7.97303745 39.73813662 -16.30078125 38.02734375 C-21.4622983 36.40404178 -24.01612515 33.97581228 -27 29.5 C-29.84884891 23.6666427 -30.16006871 16.40204928 -28.3125 10.1875 C-26.12798234 5.38156116 -23.29575705 2.51616984 -19 -0.5 C-13.15201697 -2.44932768 -5.63978919 -2.78311336 0 0 Z M-17 7.5 C-17.66 9.81 -18.32 12.12 -19 14.5 C-13.72 14.5 -8.44 14.5 -3 14.5 C-3.28720071 8.63073175 -3.28720071 8.63073175 -6.375 6.625 C-10.42140092 4.89082818 -13.25500182 5.29141133 -17 7.5 Z " fill="#131517" transform="translate(726,530.5)"/>
<path d="M0 0 C4.26083083 4.89252378 4.46988481 8.91831118 4.44140625 15.18359375 C4.43818359 16.43398438 4.43496094 17.684375 4.43164062 18.97265625 C4.41907227 20.92558594 4.41907227 20.92558594 4.40625 22.91796875 C4.40173828 24.23539063 4.39722656 25.5528125 4.39257812 26.91015625 C4.38079316 30.16280616 4.36434011 33.41536459 4.34375 36.66796875 C1.04375 36.66796875 -2.25625 36.66796875 -5.65625 36.66796875 C-5.67606934 35.96712158 -5.69588867 35.26627441 -5.71630859 34.54418945 C-5.81181166 31.35591713 -5.92138871 28.16827728 -6.03125 24.98046875 C-6.0621875 23.87767578 -6.093125 22.77488281 -6.125 21.63867188 C-6.16367187 20.57197266 -6.20234375 19.50527344 -6.2421875 18.40625 C-6.2736084 17.42696533 -6.3050293 16.44768066 -6.33740234 15.4387207 C-6.67054569 12.54374074 -7.45425587 10.31024708 -8.65625 7.66796875 C-13.33065427 6.70319449 -13.33065427 6.70319449 -17.96875 7.35546875 C-20.05654302 8.97930777 -20.66236223 10.21620316 -21.65625 12.66796875 C-22.02013886 15.37331732 -22.02013886 15.37331732 -22.0703125 18.30859375 C-22.12832031 19.91347656 -22.12832031 19.91347656 -22.1875 21.55078125 C-22.23390625 23.21753906 -22.23390625 23.21753906 -22.28125 24.91796875 C-22.33925781 26.60792969 -22.33925781 26.60792969 -22.3984375 28.33203125 C-22.49262336 31.11051423 -22.57824586 33.88899209 -22.65625 36.66796875 C-25.95625 36.66796875 -29.25625 36.66796875 -32.65625 36.66796875 C-32.65625 24.12796875 -32.65625 11.58796875 -32.65625 -1.33203125 C-28.20125 -1.82703125 -28.20125 -1.82703125 -23.65625 -2.33203125 C-22.65625 1.66796875 -22.65625 1.66796875 -23.65625 3.66796875 C-22.99625 3.66796875 -22.33625 3.66796875 -21.65625 3.66796875 C-21.32625 2.67796875 -20.99625 1.68796875 -20.65625 0.66796875 C-14.51190935 -3.76961061 -6.30517711 -5.07090895 0 0 Z " fill="#141518" transform="translate(976.65625,531.33203125)"/>
<path d="M0 0 C2.97 0 5.94 0 9 0 C9.01981934 0.69561035 9.03963867 1.3912207 9.06005859 2.10791016 C9.15572124 5.28063321 9.26523304 8.45273487 9.375 11.625 C9.4059375 12.71941406 9.436875 13.81382812 9.46875 14.94140625 C9.66319212 20.28856459 9.84673618 25.01073016 12 30 C15.50164762 30.89577032 17.38129749 31.26716699 20.75 29.8125 C23.85282785 27.31299979 24.84366722 25.302853 25.31884766 21.34277344 C25.35026855 20.35825195 25.38168945 19.37373047 25.4140625 18.359375 C25.45273437 17.28945313 25.49140625 16.21953125 25.53125 15.1171875 C25.5621875 14.00601563 25.593125 12.89484375 25.625 11.75 C25.66367187 10.62335937 25.70234375 9.49671875 25.7421875 8.3359375 C25.83637336 5.55745452 25.92199586 2.77897666 26 0 C32.625 -0.125 32.625 -0.125 36 1 C36 13.54 36 26.08 36 39 C32.7 39 29.4 39 26 39 C25.67 37.68 25.34 36.36 25 35 C23.824375 35.9590625 23.824375 35.9590625 22.625 36.9375 C17.88998157 40.65787162 13.87889293 40.5099986 8 40 C3.70898089 38.2653327 2.00217802 36.11377044 0 32 C-0.34057617 28.49487305 -0.34057617 28.49487305 -0.29296875 24.51171875 C-0.28872391 23.80852005 -0.28447906 23.10532135 -0.28010559 22.3808136 C-0.2634006 20.14930869 -0.22576614 17.91872887 -0.1875 15.6875 C-0.17244248 14.1686329 -0.15875594 12.64975154 -0.14648438 11.13085938 C-0.11352473 7.42027566 -0.06180016 3.71022822 0 0 Z " fill="#141619" transform="translate(864,529)"/>
<path d="M0 0 C0 17.16 0 34.32 0 52 C-5.28 52 -10.56 52 -16 52 C-16 34.84 -16 17.68 -16 0 C-3 -1 -3 -1 0 0 Z " fill="#14171A" transform="translate(843,434)"/>
<path d="M0 0 C0.721875 0.00257813 1.44375 0.00515625 2.1875 0.0078125 C2.909375 0.00523437 3.63125 0.00265625 4.375 0 C6.1875 0.1328125 6.1875 0.1328125 7.1875 1.1328125 C7.29701578 2.94173856 7.33659393 4.75494049 7.34863281 6.56713867 C7.35824036 7.72892136 7.3678479 8.89070404 7.37774658 10.08769226 C7.38199646 11.35426163 7.38624634 12.62083099 7.390625 13.92578125 C7.39632507 15.21970291 7.40202515 16.51362457 7.40789795 17.84675598 C7.41842045 20.59323521 7.42425394 23.33968508 7.42773438 26.08618164 C7.43320138 29.59559306 7.4571849 33.10461299 7.48570633 36.61390209 C7.50889122 39.967854 7.51078737 43.32175338 7.515625 46.67578125 C7.5279718 47.93222946 7.5403186 49.18867767 7.55303955 50.48320007 C7.55003845 51.66074356 7.54703735 52.83828705 7.54394531 54.05151367 C7.54759094 55.08330246 7.55123657 56.11509125 7.55499268 57.17814636 C6.81310458 63.14297716 3.81838697 67.17492876 -0.6953125 70.875 C-4.44684403 73.10376965 -8.52910449 73.63293938 -12.8125 74.1328125 C-12.8125 71.1628125 -12.8125 68.1928125 -12.8125 65.1328125 C-11.69875 64.6996875 -10.585 64.2665625 -9.4375 63.8203125 C-5.63737666 62.43370131 -5.63737666 62.43370131 -3.8125 59.1328125 C-3.49057952 56.49260763 -3.49057952 56.49260763 -3.50952148 53.48388672 C-3.49287949 52.32613739 -3.47623749 51.16838806 -3.45909119 49.97555542 C-3.45067703 48.72549713 -3.44226288 47.47543884 -3.43359375 46.1875 C-3.40763498 44.23116996 -3.38167142 42.27483996 -3.3554163 40.31851387 C-3.32100869 37.5785629 -3.29543332 34.83855661 -3.26989746 32.09851074 C-3.22418019 27.29483153 -3.16911309 22.49127092 -3.10719299 17.68777466 C-3.07510759 15.12930336 -3.0482583 12.57076037 -3.02696228 10.01217651 C-3.01347244 8.86073151 -2.9999826 7.7092865 -2.98608398 6.52294922 C-2.97657211 5.50385468 -2.96706024 4.48476013 -2.95726013 3.43478394 C-2.7539529 0.20179827 -2.7539529 0.20179827 0 0 Z " fill="#131517" transform="translate(802.8125,507.8671875)"/>
<path d="M0 0 C1.69141656 0.08963062 3.37959602 0.24577676 5.0625 0.4375 C6.44115234 0.59025391 6.44115234 0.59025391 7.84765625 0.74609375 C8.55792969 0.82988281 9.26820313 0.91367187 10 1 C11.1265631 4.04108999 12.25096695 7.08297405 13.375 10.125 C13.69210937 10.9809375 14.00921875 11.836875 14.3359375 12.71875 C15.96262318 17.12435706 17.54979614 21.53220024 19 26 C19.22139648 25.28344238 19.44279297 24.56688477 19.67089844 23.82861328 C20.68155786 20.58892925 21.71542722 17.35712276 22.75 14.125 C23.09804688 12.99707031 23.44609375 11.86914062 23.8046875 10.70703125 C24.15273438 9.63066406 24.50078125 8.55429687 24.859375 7.4453125 C25.17358398 6.45031738 25.48779297 5.45532227 25.81152344 4.43017578 C27 2 27 2 28.86816406 0.63623047 C32.43882967 -0.42940794 35.35651953 0.39275325 39 1 C37.48875137 5.12611908 35.97709817 9.25208967 34.46508789 13.37792969 C33.95195882 14.77828066 33.43893575 16.17867047 32.92602539 17.57910156 C27.68142009 31.898355 27.68142009 31.898355 25 39 C21.04 39 17.08 39 13 39 C11.48595323 35.03566387 9.97442501 31.07037892 8.46508789 27.10424805 C7.95273558 25.75894117 7.43973056 24.41388267 6.92602539 23.0690918 C4.13414766 15.7591023 1.39665315 8.45170996 -1 1 C-0.67 0.67 -0.34 0.34 0 0 Z " fill="#131518" transform="translate(735,529)"/>
<path d="M0 0 C1.23556641 0.01740234 1.23556641 0.01740234 2.49609375 0.03515625 C3.32238281 0.04417969 4.14867187 0.05320312 5 0.0625 C5.63808594 0.07410156 6.27617188 0.08570313 6.93359375 0.09765625 C7.77431244 3.72085823 8.03218072 6.99928605 7.95532227 10.71411133 C7.92517784 12.36525688 7.92517784 12.36525688 7.89442444 14.04975891 C7.85387184 15.81563606 7.85387184 15.81563606 7.8125 17.6171875 C7.78888901 18.83089523 7.76527802 20.04460297 7.74095154 21.29508972 C7.66445457 25.16690167 7.58036966 29.03850657 7.49609375 32.91015625 C7.44285912 35.53709929 7.39011881 38.16405239 7.33789062 40.79101562 C7.20885825 47.22669027 7.0735976 53.66221144 6.93359375 60.09765625 C3.96359375 60.09765625 0.99359375 60.09765625 -2.06640625 60.09765625 C-2.22001539 52.42239116 -2.36819711 44.7470378 -2.50936985 37.07153416 C-2.57508797 33.50783599 -2.6427048 29.94419457 -2.71459961 26.38061523 C-2.79709191 22.28768991 -2.87143581 18.19465246 -2.9453125 14.1015625 C-2.97234756 12.81617081 -2.99938263 11.53077911 -3.02723694 10.20643616 C-3.04733322 9.02528732 -3.0674295 7.84413849 -3.08813477 6.62719727 C-3.10812027 5.58128922 -3.12810577 4.53538116 -3.1486969 3.45777893 C-3.04428533 0.46322099 -2.98703882 0.14116441 0 0 Z " fill="#16181B" transform="translate(1035.06640625,507.90234375)"/>
<path d="M0 0 C0 3.63 0 7.26 0 11 C-1.5778125 10.938125 -1.5778125 10.938125 -3.1875 10.875 C-6.83432497 10.99456803 -8.87991558 11.17995076 -12 13 C-16.05616301 17.76028911 -15.55452524 23.3742273 -15.6875 29.3125 C-15.72166016 30.33923828 -15.75582031 31.36597656 -15.79101562 32.42382812 C-15.87322536 34.94884141 -15.93829627 37.47440241 -16 40 C-19.3 40 -22.6 40 -26 40 C-26.33 27.46 -26.66 14.92 -27 2 C-23.7 1.67 -20.4 1.34 -17 1 C-16.34 2.65 -15.68 4.3 -15 6 C-14.319375 5.38125 -13.63875 4.7625 -12.9375 4.125 C-8.88039535 1.19007323 -5.00229226 0 0 0 Z " fill="#15171B" transform="translate(936,528)"/>
<path d="M0 0 C0.66 0.66 1.32 1.32 2 2 C1.625 5.125 1.625 5.125 1 8 C-0.11181641 7.96519531 -0.11181641 7.96519531 -1.24609375 7.9296875 C-16.94975552 7.6605917 -32.32457634 9.81864263 -47.26171875 14.74609375 C-49 15 -49 15 -52 13 C-51.67 11.35 -51.34 9.7 -51 8 C-35.40632943 2.34785293 -16.69404077 -2.21627783 0 0 Z " fill="#151619" transform="translate(570,464)"/>
<path d="M0 0 C4.06808667 -0.11226863 6.81167148 0.13085797 10.34375 2.12109375 C10.386471 3.7872128 10.38438832 5.4549226 10.34375 7.12109375 C8.74543693 8.71940682 7.02626385 8.2862958 4.8125 8.33203125 C3.86463623 8.3582959 2.91677246 8.38456055 1.94018555 8.41162109 C0.91836182 8.43949707 -0.10346191 8.46737305 -1.15625 8.49609375 C-14.10351193 8.95580737 -26.57389119 10.3650025 -38.87109375 14.66796875 C-40.65625 15.12109375 -40.65625 15.12109375 -42.65625 14.12109375 C-42.65625 12.47109375 -42.65625 10.82109375 -42.65625 9.12109375 C-29.46701785 2.28223264 -14.64008575 0.66741567 0 0 Z " fill="#141517" transform="translate(561.65625,487.87890625)"/>
<path d="M0 0 C3.5420773 3.09931764 4.84372778 4.88656044 5.5 9.5625 C4.87177317 13.88155944 3.80102292 16.59920439 0.3125 19.3125 C-3.15232593 20.34258338 -6.45116679 20.5914722 -10 20 C-12.8100346 18.20636089 -14.50940468 16.98119065 -16 14 C-16.42074378 10.94059163 -16.47999423 8.0540292 -16 5 C-11.6035991 -0.70343901 -6.91186866 -2.16500166 0 0 Z " fill="#15171A" transform="translate(841,408)"/>
<path d="M0 0 C0 17.16 0 34.32 0 52 C-5.28 52 -10.56 52 -16 52 C-16 34.84 -16 17.68 -16 0 C-3 -1 -3 -1 0 0 Z M-14 2 C-14 17.84 -14 33.68 -14 50 C-10.04 50 -6.08 50 -2 50 C-2 34.16 -2 18.32 -2 2 C-5.96 2 -9.92 2 -14 2 Z " fill="#08090B" transform="translate(843,434)"/>
<path d="M0 0 C2.64 0 5.28 0 8 0 C8 0.33 8 0.66 8 1 C5.69 1.33 3.38 1.66 1 2 C1 37.64 1 73.28 1 110 C3.475 109.505 3.475 109.505 6 109 C8.67578125 109.12109375 8.67578125 109.12109375 11.3125 109.4375 C12.19550781 109.53933594 13.07851563 109.64117188 13.98828125 109.74609375 C14.98408203 109.87177734 14.98408203 109.87177734 16 110 C12.54145992 112.30569339 11.02062492 112.29761619 6.9375 112.3125 C5.87402344 112.32925781 4.81054688 112.34601563 3.71484375 112.36328125 C2.81894531 112.24339844 1.92304688 112.12351562 1 112 C-1.06359906 108.90460141 -1.24978242 108.26743096 -1.24723816 104.76933289 C-1.25143265 103.90722198 -1.25562714 103.04511108 -1.25994873 102.15687561 C-1.25432922 101.21396164 -1.24870972 100.27104767 -1.24291992 99.29956055 C-1.24481827 98.30414246 -1.24671661 97.30872437 -1.24867249 96.28314209 C-1.25238457 92.98425481 -1.24166745 89.68558656 -1.23046875 86.38671875 C-1.22927678 84.09609503 -1.22882382 81.80547082 -1.2290802 79.5148468 C-1.22751443 74.70884144 -1.21921939 69.90291047 -1.20581055 65.09692383 C-1.18884936 58.93991172 -1.18499539 52.78298164 -1.18575573 46.62594891 C-1.18548355 41.89302285 -1.17999419 37.16011469 -1.17275429 32.4271946 C-1.16957403 30.15741931 -1.16760171 27.887642 -1.16686058 25.61786461 C-1.1646886 22.4414158 -1.15592487 19.26505326 -1.14526367 16.08862305 C-1.14571686 15.15178177 -1.14617004 14.21494049 -1.14663696 13.24971008 C-1.12444281 8.71942937 -0.92366448 4.45812447 0 0 Z " fill="#07080A" transform="translate(418,415)"/>
<path d="M0 0 C1 1 1 1 1.0625 3.5625 C1.041875 4.366875 1.02125 5.17125 1 6 C-4.27234499 7.91122506 -9.57510606 8.91416288 -15.078125 9.85546875 C-18.25291065 10.41893262 -21.23223048 11.07888114 -24.2890625 12.1171875 C-27.55712753 13.1814277 -29.69523951 12.78684774 -33 12 C-33 10.68 -33 9.36 -33 8 C-22.70254196 2.991113 -11.57470458 -0.55117641 0 0 Z " fill="#161719" transform="translate(550,441)"/>
<path d="M0 0 C1.32 0.33 2.64 0.66 4 1 C3.67 19.48 3.34 37.96 3 57 C0.03 57 -2.94 57 -6 57 C-6 40.17 -6 23.34 -6 6 C-5.34 5.67 -4.68 5.34 -4 5 C-4 21.17 -4 37.34 -4 54 C-2.68 54.33 -1.36 54.66 0 55 C0.16830406 47.81021608 0.32817993 40.62028027 0.48217773 33.43017578 C0.53557055 30.98384348 0.59089777 28.5375526 0.64819336 26.09130859 C0.73017974 22.57658826 0.80522472 19.06177802 0.87890625 15.546875 C0.90594131 14.4519574 0.93297638 13.35703979 0.96083069 12.22894287 C0.98092697 11.20818665 1.00102325 10.18743042 1.02172852 9.13574219 C1.04171402 8.23861511 1.06169952 7.34148804 1.08229065 6.41717529 C1.00410089 4.12045796 0.65215213 2.1959121 0 0 Z " fill="#060709" transform="translate(1039,511)"/>
<path d="M0 0 C0.33 0 0.66 0 1 0 C2.15326328 7.31065166 2.1276612 14.51654294 2.09765625 21.90625 C2.09578772 23.24003038 2.09436587 24.57381146 2.09336853 25.90759277 C2.0895776 29.39276067 2.07977715 32.8778859 2.06866455 36.36303711 C2.05837623 39.92951887 2.05385511 43.49600763 2.04882812 47.0625 C2.0381513 54.0416858 2.02058283 61.02083645 2 68 C6.62 68 11.24 68 16 68 C15.979375 65.710625 15.95875 63.42125 15.9375 61.0625 C15.89999707 52.34809993 16.39769208 43.69044286 17 35 C18.485 34.505 18.485 34.505 20 34 C20 34.66 20 35.32 20 36 C19.34 36 18.68 36 18 36 C18 47.22 18 58.44 18 70 C12.06 70.33 6.12 70.66 0 71 C0 47.57 0 24.14 0 0 Z " fill="#040507" transform="translate(645,416)"/>
<path d="M0 0 C2.31 0 4.62 0 7 0 C7 0.66 7 1.32 7 2 C5.68 2 4.36 2 3 2 C3.00523682 2.85231201 3.01047363 3.70462402 3.01586914 4.58276367 C3.03296332 7.76033273 3.04547562 10.93787825 3.05493164 14.11547852 C3.05994454 15.48788222 3.06675658 16.86028062 3.07543945 18.23266602 C3.08763857 20.21107651 3.09272248 22.1895268 3.09765625 24.16796875 C3.10289307 25.35672607 3.10812988 26.5454834 3.11352539 27.77026367 C3.01239479 30.64737487 2.66550193 33.20673413 2 36 C4.31 36 6.62 36 9 36 C8.98952637 35.38479492 8.97905273 34.76958984 8.96826172 34.13574219 C8.92661305 31.34053657 8.90064584 28.54539634 8.875 25.75 C8.85824219 24.78191406 8.84148438 23.81382812 8.82421875 22.81640625 C8.81777344 21.88183594 8.81132813 20.94726562 8.8046875 19.984375 C8.79421387 19.12553711 8.78374023 18.26669922 8.77294922 17.38183594 C9.02054766 14.78444843 9.63592321 13.20938598 11 11 C15.00434719 7.72050153 18.92305172 5.89593205 24 5 C24.66 4.01 25.32 3.02 26 2 C26 3.98 26 5.96 26 8 C25.09507812 8.14695312 25.09507812 8.14695312 24.171875 8.296875 C19.30783959 9.20692033 16.10912858 9.85449523 13 14 C11.76939579 16.46120841 11.7942277 18.25776866 11.68359375 21.0078125 C11.64169922 21.99394531 11.59980469 22.98007812 11.55664062 23.99609375 C11.51732422 25.02863281 11.47800781 26.06117188 11.4375 27.125 C11.39431641 28.16527344 11.35113281 29.20554687 11.30664062 30.27734375 C11.20037232 32.8513983 11.09966473 35.42568131 11 38 C7.7 38 4.4 38 1 38 C0.67 25.46 0.34 12.92 0 0 Z " fill="#0C0D0F" transform="translate(909,530)"/>
<path d="M0 0 C3 3 3 3 3.36076355 4.9172821 C3.35410172 5.63898087 3.34743988 6.36067963 3.34057617 7.10424805 C3.34034958 7.92487228 3.34012299 8.74549652 3.33988953 9.59098816 C3.32440567 10.47232925 3.30892181 11.35367035 3.29296875 12.26171875 C3.28872391 13.16751175 3.28447906 14.07330475 3.28010559 15.00654602 C3.26330848 17.90049933 3.2256545 20.79375706 3.1875 23.6875 C3.17245449 25.64907849 3.15876585 27.61066789 3.14648438 29.57226562 C3.11340157 34.38177856 3.06161222 39.19077133 3 44 C-2.61 44 -8.22 44 -14 44 C-13.67 32.45 -13.34 20.9 -13 9 C-10.54713704 12.67929445 -10.76771122 14.47377907 -10.8046875 18.85546875 C-10.8075174 19.51710526 -10.81034729 20.17874176 -10.81326294 20.86042786 C-10.82444082 22.96963737 -10.84954019 25.07841925 -10.875 27.1875 C-10.88503293 28.61913448 -10.89415824 30.05077564 -10.90234375 31.48242188 C-10.92437205 34.98841977 -10.95888515 38.49416813 -11 42 C-7.04 42 -3.08 42 1 42 C0.505 21.21 0.505 21.21 0 0 Z " fill="#040507" transform="translate(903,442)"/>
<path d="M0 0 C2.97 0 5.94 0 9 0 C9 9.24 9 18.48 9 28 C6.79807776 24.69711664 6.76040032 23.72537273 6.8046875 19.89453125 C6.81435547 18.42016602 6.81435547 18.42016602 6.82421875 16.91601562 C6.84097656 15.89185547 6.85773437 14.86769531 6.875 13.8125 C6.88402344 12.77673828 6.89304687 11.74097656 6.90234375 10.67382812 C6.9259214 8.11565315 6.9588297 5.55794252 7 3 C5.02 3 3.04 3 1 3 C1.08160659 6.83415713 1.19438419 10.66680759 1.3125 14.5 C1.34633789 16.11648438 1.34633789 16.11648438 1.38085938 17.765625 C1.59368675 24.11175048 2.03004666 29.32526773 5 35 C7.17688042 36.55922715 7.17688042 36.55922715 9.6875 37 C10.49574219 37.20625 11.30398438 37.4125 12.13671875 37.625 C13.05904297 37.810625 13.05904297 37.810625 14 38 C14 38.33 14 38.66 14 39 C5.86330935 39.62589928 5.86330935 39.62589928 2.5 37.1875 C-0.2709556 33.14652309 -0.13315775 29.41515349 -0.09765625 24.70703125 C-0.0962413 24.00100266 -0.09482635 23.29497406 -0.09336853 22.56755066 C-0.08777764 20.31582374 -0.07522688 18.06419679 -0.0625 15.8125 C-0.05748382 14.28450665 -0.05292112 12.75651173 -0.04882812 11.22851562 C-0.0378112 7.48563865 -0.02055287 3.74283627 0 0 Z " fill="#050608" transform="translate(864,529)"/>
<path d="M0 0 C0.77923828 0.00902344 1.55847656 0.01804687 2.36132812 0.02734375 C4.26185447 0.05066309 6.16222008 0.08652414 8.0625 0.125 C8.0625 5.405 8.0625 10.685 8.0625 16.125 C3.4425 16.125 -1.1775 16.125 -5.9375 16.125 C-3.03657498 14.19104999 -2.04075263 13.82368059 1.25 13.5 C2.508125 13.37625 3.76625 13.2525 5.0625 13.125 C6.30553616 9.53400664 5.74366015 6.80831043 5.0625 3.125 C-3.79156634 2.73941969 -11.44918642 3.55556454 -19.9375 6.125 C-14.63505326 -0.23793609 -7.67978071 -0.17110051 0 0 Z " fill="#121214" transform="translate(403.9375,382.875)"/>
<path d="M0 0 C0.33 0 0.66 0 1 0 C1.37683507 6.15497289 0.42408834 10.96988958 -3.5 15.875 C-7.63858015 18.97893511 -13.09511603 18.43025298 -18 18 C-21.0625 16.8125 -21.0625 16.8125 -23 15 C-23.8125 12.3125 -23.8125 12.3125 -24 10 C-23.195625 10.825 -22.39125 11.65 -21.5625 12.5 C-18.15488891 15.35044245 -15.46949446 15.55076996 -11.125 15.30859375 C-8.52968802 14.93170102 -6.32933429 14.20223705 -4 13 C-4 12.67 -4 12.34 -4 12 C-6.97 12 -9.94 12 -13 12 C-13 11.67 -13 11.34 -13 11 C-11.948125 10.773125 -10.89625 10.54625 -9.8125 10.3125 C-5.81491037 9.16917315 -3.63484337 7.25480652 -1 4 C-0.13880866 1.82653432 -0.13880866 1.82653432 0 0 Z " fill="#0C0D0F" transform="translate(1013,551)"/>
<path d="M0 0 C0.33 0 0.66 0 1 0 C1.84096238 5.81980883 2.13501091 11.43721324 2.09765625 17.3125 C2.0962413 18.16682617 2.09482635 19.02115234 2.09336853 19.90136719 C2.08781962 22.60094873 2.07527697 25.30044399 2.0625 28 C2.05747839 29.84244671 2.05291664 31.68489473 2.04882812 33.52734375 C2.03786699 38.01826186 2.02063825 42.50911636 2 47 C1.34 47 0.68 47 0 47 C-0.92523767 42.29938835 -1.14631402 37.7430473 -1.1328125 32.96875 C-1.13376923 32.21460815 -1.13472595 31.46046631 -1.13571167 30.68347168 C-1.13638898 29.09676021 -1.13456617 27.51004591 -1.13037109 25.92333984 C-1.12501645 23.50742311 -1.13033135 21.09169226 -1.13671875 18.67578125 C-1.13605789 17.12760376 -1.13477656 15.57942639 -1.1328125 14.03125 C-1.13483673 13.31545776 -1.13686096 12.59966553 -1.13894653 11.86218262 C-1.12016409 7.80493579 -0.78358 3.98092879 0 0 Z " fill="#050608" transform="translate(372,498)"/>
<path d="M0 0 C0.66 0 1.32 0 2 0 C2.19596037 4.28208273 2.3739853 8.56447075 2.53710938 12.84790039 C2.59464492 14.2976362 2.65664628 15.74720334 2.72363281 17.1965332 C3.19069364 27.39048951 2.69138889 36.92038506 1 47 C0.67 47 0.34 47 0 47 C0 31.49 0 15.98 0 0 Z " fill="#060709" transform="translate(612,424)"/>
<path d="M0 0 C2.97 0 5.94 0 9 0 C10.12616242 3.04124077 11.25096637 6.08297249 12.375 9.125 C12.69210937 9.9809375 13.00921875 10.836875 13.3359375 11.71875 C14.96262318 16.12435706 16.54979614 20.53220024 18 25 C18.99 24.34 19.98 23.68 21 23 C20.67 24.65 20.34 26.3 20 28 C19.01 28 18.02 28 17 28 C16.67 28.66 16.34 29.32 16 30 C15.51080078 28.42412109 15.51080078 28.42412109 15.01171875 26.81640625 C12.74216227 19.52028614 10.45320932 12.2369675 8 5 C7.67 4.01 7.34 3.02 7 2 C4.69 1.67 2.38 1.34 0 1 C0 0.67 0 0.34 0 0 Z " fill="#0E0F11" transform="translate(736,530)"/>
<path d="M0 0 C0.74617584 0.00141495 1.49235168 0.0028299 2.26113892 0.00428772 C4.62465568 0.00984751 6.98807477 0.02239236 9.3515625 0.03515625 C10.96223821 0.04017645 12.57291541 0.04473845 14.18359375 0.04882812 C18.11462049 0.05980374 22.04557498 0.07704029 25.9765625 0.09765625 C26.4715625 1.08765625 26.4715625 1.08765625 26.9765625 2.09765625 C6.1865625 2.59265625 6.1865625 2.59265625 -15.0234375 3.09765625 C-14.6934375 2.43765625 -14.3634375 1.77765625 -14.0234375 1.09765625 C-9.37704321 -0.02518546 -4.75236326 -0.03441406 0 0 Z " fill="#08090B" transform="translate(558.0234375,525.90234375)"/>
<path d="M0 0 C0.33 0 0.66 0 1 0 C1.33 6.6 1.66 13.2 2 20 C4.66503748 21.33251874 7.03565201 21.01132019 9.95703125 20.96875 C12.39296825 21.00601099 14.63993309 21.40998327 17 22 C13.57375115 24.08554278 10.85089184 24.26953755 6.875 24.25 C5.82054687 24.25515625 4.76609375 24.2603125 3.6796875 24.265625 C1 24 1 24 -1 22 C-1.17283478 19.00615017 -1.23196807 16.11606312 -1.1875 13.125 C-1.18685547 12.30902344 -1.18621094 11.49304688 -1.18554688 10.65234375 C-1.15810315 6.91389871 -1.02102151 3.61660588 0 0 Z " fill="#0C0D0F" transform="translate(652,538)"/>
<path d="M0 0 C0.67804688 0.47050781 1.35609375 0.94101562 2.0546875 1.42578125 C13.65484099 9.18599473 24.40685173 10.65960835 38 12 C38 12.33 38 12.66 38 13 C24.50826623 13.58167954 12.43093666 13.12260437 1.29296875 4.46484375 C0 3 0 3 0 0 Z " fill="#0F0F11" transform="translate(379,560)"/>
<path d="M0 0 C11.22 0 22.44 0 34 0 C34 0.66 34 1.32 34 2 C23.11 2 12.22 2 1 2 C1 2.66 1 3.32 1 4 C0.34 4 -0.32 4 -1 4 C-0.67 2.68 -0.34 1.36 0 0 Z " fill="#050608" transform="translate(724,463)"/>
<path d="M0 0 C1.29227929 3.87683788 0.44092034 5.51559014 -0.80078125 9.3828125 C-1.20103516 10.63191406 -1.60128906 11.88101562 -2.01367188 13.16796875 C-2.22693115 13.81685059 -2.44019043 14.46573242 -2.65991211 15.13427734 C-3.31114954 17.12088042 -3.94456445 19.11254941 -4.57617188 21.10546875 C-6.92290248 28.34402853 -6.92290248 28.34402853 -8 31 C-8.66 31.33 -9.32 31.66 -10 32 C-9.47067916 24.91580194 -7.87474258 18.76376515 -5.5625 12.0625 C-5.24990234 11.11826172 -4.93730469 10.17402344 -4.61523438 9.20117188 C-2.26767113 2.26767113 -2.26767113 2.26767113 0 0 Z " fill="#0E0E10" transform="translate(803,441)"/>
<path d="M0 0 C0.99 0.495 0.99 0.495 2 1 C2 8.59 2 16.18 2 24 C3.65 24 5.3 24 7 24 C7.33 22.68 7.66 21.36 8 20 C8 21.98 8 23.96 8 26 C5.36 26 2.72 26 0 26 C0 17.42 0 8.84 0 0 Z " fill="#060709" transform="translate(971,542)"/>
<path d="M0 0 C3.16074764 1.58037382 3.54298175 4.76378948 4.625 7.9375 C4.85445312 8.58396484 5.08390625 9.23042969 5.3203125 9.89648438 C7 14.71058873 7 14.71058873 7 17 C10.63 17 14.26 17 18 17 C17.67 17.66 17.34 18.32 17 19 C13.37 19 9.74 19 6 19 C0.44419134 6.51480638 0.44419134 6.51480638 0 0 Z " fill="#0A0B0D" transform="translate(775,467)"/>
<path d="M0 0 C3 1 3 1 4.625 3.8125 C7.29914136 10.62452326 7.76926418 18.92294329 6 26 C5.34 25.67 4.68 25.34 4 25 C3.76284131 22.47831267 3.63020931 20.02705872 3.5625 17.5 C3.29750477 11.15142084 2.4369335 5.93340331 0 0 Z " fill="#0E0F11" transform="translate(687,520)"/>
<path d="M0 0 C1.65234375 1.01171875 1.65234375 1.01171875 3.96484375 3.13671875 C3.96484375 4.12671875 3.96484375 5.11671875 3.96484375 6.13671875 C3.63484375 5.47671875 3.30484375 4.81671875 2.96484375 4.13671875 C-5.35054171 0.80491745 -12.4631444 1.02411299 -21.03515625 3.13671875 C-21.03515625 2.47671875 -21.03515625 1.81671875 -21.03515625 1.13671875 C-14.0859709 -2.14119887 -7.29379427 -3.09391273 0 0 Z " fill="#0E0F11" transform="translate(897.03515625,433.86328125)"/>
<path d="M0 0 C0 0.99 0 1.98 0 3 C-1.05058594 2.96519531 -2.10117187 2.93039062 -3.18359375 2.89453125 C-11.09939951 2.71359855 -17.59312732 2.825626 -25 6 C-24 3 -24 3 -20.875 1.375 C-13.80177149 -1.3509907 -7.37319364 -0.96430098 0 0 Z " fill="#101012" transform="translate(744,433)"/>
<path d="M0 0 C2.97 0.495 2.97 0.495 6 1 C6 1.66 6 2.32 6 3 C4.68 3 3.36 3 2 3 C2.01571045 3.93851807 2.01571045 3.93851807 2.03173828 4.89599609 C2.07323191 7.7222901 2.09930473 10.54852011 2.125 13.375 C2.14175781 14.35984375 2.15851562 15.3446875 2.17578125 16.359375 C2.18222656 17.30039062 2.18867187 18.24140625 2.1953125 19.2109375 C2.20578613 20.08024902 2.21625977 20.94956055 2.22705078 21.84521484 C2 24 2 24 0 26 C0 17.42 0 8.84 0 0 Z " fill="#060709" transform="translate(890,529)"/>
<path d="M0 0 C0 0.33 0 0.66 0 1 C-13.70226735 2.69762604 -27.26628431 1.80448544 -41 1 C-41 0.67 -41 0.34 -41 0 C-27.17945947 -1.23044558 -13.81414186 -0.90690732 0 0 Z " fill="#050608" transform="translate(460,542)"/>
<path d="M0 0 C6.45364939 -0.55848889 12.31348803 0.30190327 18.5625 1.8125 C19.63467773 2.0604834 19.63467773 2.0604834 20.72851562 2.31347656 C22.75390625 2.83203125 22.75390625 2.83203125 26 4 C26.33 4.99 26.66 5.98 27 7 C25.87722656 6.72285156 24.75445312 6.44570313 23.59765625 6.16015625 C14.13745968 3.77848755 14.13745968 3.77848755 4.5 2.375 C3.345 2.25125 2.19 2.1275 1 2 C0.67 1.34 0.34 0.68 0 0 Z " fill="#0F0F11" transform="translate(455,527)"/>
<path d="M0 0 C3 1 3 1 4.17529297 2.73730469 C5.13562052 5.37209324 5.22788755 7.40167075 5.1953125 10.203125 C5.18886719 11.1828125 5.18242188 12.1625 5.17578125 13.171875 C5.15902344 14.18765625 5.14226563 15.2034375 5.125 16.25 C5.11597656 17.28125 5.10695313 18.3125 5.09765625 19.375 C5.07412011 21.91690287 5.04124023 24.4583328 5 27 C2.95908896 23.93863344 2.74292059 23.19712179 2.65625 19.7265625 C2.62660156 18.9015625 2.59695313 18.0765625 2.56640625 17.2265625 C2.54449219 16.36804688 2.52257812 15.50953125 2.5 14.625 C2.39991613 7.08059656 2.39991613 7.08059656 0 0 Z " fill="#090A0C" transform="translate(1017,533)"/>
<path d="M0 0 C4.26859537 0.19853932 5.70207363 0.69530257 8.75 3.8125 C12.29728897 8.83782604 13.24987372 11.50631412 13.125 17.75 C13.10695313 18.92046875 13.08890625 20.0909375 13.0703125 21.296875 C13.03550781 22.63492187 13.03550781 22.63492187 13 24 C12.67 24 12.34 24 12 24 C11.85304688 22.82244141 11.85304688 22.82244141 11.703125 21.62109375 C10.41099215 11.56071523 10.41099215 11.56071523 4.40625 3.7265625 C2.96808447 2.77004675 1.48699794 1.8786806 0 1 C0 0.67 0 0.34 0 0 Z " fill="#0C0D0F" transform="translate(746,436)"/>
<path d="M0 0 C9.24154826 -0.20871753 17.9400212 -0.14982548 27 2 C27 2.66 27 3.32 27 4 C21.04676574 4.19599125 15.43470086 3.4385375 9.5625 2.5 C8.64017578 2.35691406 7.71785156 2.21382813 6.76757812 2.06640625 C4.51093993 1.71563347 2.25517147 1.36006135 0 1 C0 0.67 0 0.34 0 0 Z " fill="#0C0D0F" transform="translate(444,409)"/>
<path d="M0 0 C0.66 0 1.32 0 2 0 C2.05429278 2.70860665 2.09381211 5.41610901 2.125 8.125 C2.15013672 9.26582031 2.15013672 9.26582031 2.17578125 10.4296875 C2.21546246 15.03270731 1.75907577 18.66464004 0 23 C-0.33 23 -0.66 23 -1 23 C-1.10920422 15.25863399 -0.97159933 7.68604474 0 0 Z " fill="#0A0B0D" transform="translate(371,433)"/>
<path d="M0 0 C0 0.66 0 1.32 0 2 C-1.19625 2.185625 -2.3925 2.37125 -3.625 2.5625 C-8.71876122 3.78609033 -11.06941615 6.84833955 -14 11 C-14.99 10.01 -15.98 9.02 -17 8 C-16.01 8 -15.02 8 -14 8 C-13.95875 7.4225 -13.9175 6.845 -13.875 6.25 C-11.50934912 0.16689773 -5.80577615 -0.46446209 0 0 Z " fill="#0D0E10" transform="translate(935,529)"/>
<path d="M0 0 C4.33776139 1.55427984 6.62350894 4.89731752 9.3125 8.4375 C10.01342773 9.31631836 10.01342773 9.31631836 10.72851562 10.21289062 C12.05078125 11.93359375 12.05078125 11.93359375 14 15 C13.67 15.99 13.34 16.98 13 18 C11.58298411 16.2711195 10.16640314 14.54188254 8.75 12.8125 C7.96109375 11.84957031 7.1721875 10.88664062 6.359375 9.89453125 C5.19148437 8.46173828 5.19148437 8.46173828 4 7 C3.24203125 6.09636719 2.4840625 5.19273437 1.703125 4.26171875 C0 2 0 2 0 0 Z " fill="#0E0E10" transform="translate(693,465)"/>
<path d="M0 0 C0 0.33 0 0.66 0 1 C-0.90492188 1.14695312 -0.90492188 1.14695312 -1.828125 1.296875 C-5.59472359 2.00159345 -8.40078682 2.57616628 -11.5625 4.8125 C-13.27898091 7.42453617 -13.3408034 8.93276942 -13 12 C-13.66 12 -14.32 12 -15 12 C-15.3125 8.8125 -15.3125 8.8125 -15 5 C-9.89806945 -1.17602119 -7.43018539 -1.0785753 0 0 Z " fill="#0E0F11" transform="translate(969,530)"/>
<path d="M0 0 C0 0.66 0 1.32 0 2 C-8.68873018 2.89115181 -17.26860536 3.11624638 -26 3 C-26 2.67 -26 2.34 -26 2 C-17.25607982 0.20637535 -8.91469911 -0.23737365 0 0 Z " fill="#0E0F10" transform="translate(570,469)"/>
<path d="M0 0 C0.66 0.33 1.32 0.66 2 1 C1.360625 2.0725 0.72125 3.145 0.0625 4.25 C-2.66610184 9.61078665 -2.8025493 15.07647913 -3 21 C-3.66 21 -4.32 21 -5 21 C-5.47276791 13.12053479 -5.21511332 7.76972745 -1 1 C-0.67 0.67 -0.34 0.34 0 0 Z " fill="#08090B" transform="translate(714,442)"/>
<path d="M0 0 C0.33 0.66 0.66 1.32 1 2 C1.99 2.33 2.98 2.66 4 3 C5.8175454 5.155294 7.51610688 7.2998009 9.1875 9.5625 C9.65091797 10.17802734 10.11433594 10.79355469 10.59179688 11.42773438 C11.73423225 12.94705565 12.86796157 14.47291627 14 16 C13.34 16.66 12.68 17.32 12 18 C9.9881155 15.57209417 7.99265875 13.13119976 6 10.6875 C5.14148438 9.65206055 5.14148438 9.65206055 4.265625 8.59570312 C3.72421875 7.92861328 3.1828125 7.26152344 2.625 6.57421875 C2.12226562 5.96151123 1.61953125 5.34880371 1.1015625 4.7175293 C0 3 0 3 0 0 Z " fill="#0D0E0F" transform="translate(678,445)"/>
<path d="M0 0 C0.33 0 0.66 0 1 0 C1 3.63 1 7.26 1 11 C-3.62 11 -8.24 11 -13 11 C-10.09907498 9.06604999 -9.10325263 8.69868059 -5.8125 8.375 C-4.554375 8.25125 -3.29625 8.1275 -2 8 C-1.855625 6.865625 -1.71125 5.73125 -1.5625 4.5625 C-1 1 -1 1 0 0 Z " fill="#0B0C0E" transform="translate(411,388)"/>
<path d="M0 0 C-2.49291673 1.66194449 -4.06094134 2.4278766 -6.8125 3.3125 C-11.02596592 4.82342863 -13.72896274 6.97429054 -17 10 C-16.13877894 5.78958595 -15.35164559 4.26725065 -11.875 1.625 C-7.84501052 -0.42817359 -4.45410725 -0.31256893 0 0 Z " fill="#101113" transform="translate(718,529)"/>
<path d="M0 0 C4.87072783 4.56630734 8.89156398 9.74976539 13 15 C12.34 15.66 11.68 16.32 11 17 C9.15767006 14.73596792 7.32612166 12.4645436 5.5 10.1875 C4.71302734 9.22360352 4.71302734 9.22360352 3.91015625 8.24023438 C3.41386719 7.61826172 2.91757812 6.99628906 2.40625 6.35546875 C1.94541016 5.78465576 1.48457031 5.21384277 1.00976562 4.62573242 C0 3 0 3 0 0 Z " fill="#0E0E10" transform="translate(666,452)"/>
<path d="M0 0 C1.77734375 1.5234375 1.77734375 1.5234375 3 3 C2.27554688 2.94199219 1.55109375 2.88398438 0.8046875 2.82421875 C-5.94903744 2.39691129 -5.94903744 2.39691129 -11.6875 5.5 C-12.450625 6.325 -13.21375 7.15 -14 8 C-13.69209738 5.15190074 -13.34521809 3.41713852 -11.5 1.1875 C-7.80640947 -0.5669555 -4.01642454 -0.75446649 0 0 Z " fill="#0F1011" transform="translate(885,444)"/>
<path d="M0 0 C0.33 0 0.66 0 1 0 C1.30064562 3.0539266 1.36233108 4.51344113 -0.50390625 7.01953125 C-6.74452035 12.45490482 -6.74452035 12.45490482 -11 12.4375 C-11.99 12.293125 -12.98 12.14875 -14 12 C-13.42507813 11.72929688 -12.85015625 11.45859375 -12.2578125 11.1796875 C-9.96716817 9.98284565 -7.95759674 8.65329343 -5.875 7.125 C-5.19179688 6.63257813 -4.50859375 6.14015625 -3.8046875 5.6328125 C-1.877924 3.88955029 -0.99856772 2.37803241 0 0 Z " fill="#0B0C0E" transform="translate(807,568)"/>
<path d="M0 0 C0.33 1.32 0.66 2.64 1 4 C2.918125 3.9690625 2.918125 3.9690625 4.875 3.9375 C9.96207017 3.92941245 14.9516147 4.40979211 20 5 C20 5.33 20 5.66 20 6 C13.4 6 6.8 6 0 6 C-0.33 4.35 -0.66 2.7 -1 1 C-0.67 0.67 -0.34 0.34 0 0 Z " fill="#07080A" transform="translate(411,544)"/>
<path d="M0 0 C2.77429337 0.59084951 5.54367847 1.19695762 8.3125 1.8125 C9.49102539 2.0609668 9.49102539 2.0609668 10.69335938 2.31445312 C11.8293457 2.5706543 11.8293457 2.5706543 12.98828125 2.83203125 C14.03302612 3.05983276 14.03302612 3.05983276 15.09887695 3.29223633 C17.32575734 4.12127527 18.44876254 5.22806665 20 7 C15.47149436 6.48539709 11.06988633 5.63809462 6.625 4.625 C5.58601563 4.39039063 4.54703125 4.15578125 3.4765625 3.9140625 C2.25066406 3.46160156 2.25066406 3.46160156 1 3 C0.67 2.01 0.34 1.02 0 0 Z " fill="#0D0E10" transform="translate(461,535)"/>
<path d="M0 0 C0.268125 0.556875 0.53625 1.11375 0.8125 1.6875 C1.204375 2.450625 1.59625 3.21375 2 4 C2.37125 4.86625 2.7425 5.7325 3.125 6.625 C5.91712139 10.1616871 8.63234137 10.21238943 13 11 C13 11.33 13 11.66 13 12 C4.98630137 12.61643836 4.98630137 12.61643836 1.5 10.4375 C-0.4374597 7.28912799 -0.79258701 4.66429621 -1 1 C-0.67 0.67 -0.34 0.34 0 0 Z " fill="#0C0D0F" transform="translate(865,556)"/>
<path d="M0 0 C0.52078125 0.52207031 1.0415625 1.04414062 1.578125 1.58203125 C0.36576172 1.78119141 0.36576172 1.78119141 -0.87109375 1.984375 C-1.93972656 2.16097656 -3.00835938 2.33757813 -4.109375 2.51953125 C-5.16511719 2.69355469 -6.22085938 2.86757813 -7.30859375 3.046875 C-10.02437104 3.51370246 -12.72311735 4.02625741 -15.421875 4.58203125 C-15.421875 3.59203125 -15.421875 2.60203125 -15.421875 1.58203125 C-13.34483034 0.99673687 -11.25985703 0.43952215 -9.171875 -0.10546875 C-8.01171875 -0.41871094 -6.8515625 -0.73195313 -5.65625 -1.0546875 C-2.421875 -1.41796875 -2.421875 -1.41796875 0 0 Z " fill="#0C0D0F" transform="translate(1008.421875,535.41796875)"/>
<path d="M0 0 C-3.26190257 2.17460172 -5.69451228 2.77647909 -9.5 3.625 C-11.21703125 4.01558594 -11.21703125 4.01558594 -12.96875 4.4140625 C-16 5 -16 5 -19 5 C-19 4.34 -19 3.68 -19 3 C-12.43345544 0.6969113 -6.96327638 -0.33693273 0 0 Z " fill="#0B0C0E" transform="translate(542,529)"/>
<path d="M0 0 C2.31 0 4.62 0 7 0 C7 0.66 7 1.32 7 2 C5.68 2 4.36 2 3 2 C3 5.96 3 9.92 3 14 C2.34 13.67 1.68 13.34 1 13 C0.5859375 10.05859375 0.5859375 10.05859375 0.375 6.4375 C0.30023437 5.23996094 0.22546875 4.04242187 0.1484375 2.80859375 C0.09945312 1.88175781 0.05046875 0.95492187 0 0 Z " fill="#060709" transform="translate(909,530)"/>
<path d="M0 0 C2.71514611 1.85123598 3.69821579 2.8248258 4.75 5.875 C3.93789063 5.39933594 3.93789063 5.39933594 3.109375 4.9140625 C0.3342851 3.69192026 -1.98208098 3.46556564 -5 3.25 C-5.98484375 3.17523438 -6.9696875 3.10046875 -7.984375 3.0234375 C-8.73203125 2.97445313 -9.4796875 2.92546875 -10.25 2.875 C-9.25 0.875 -9.25 0.875 -6.5625 -0.4375 C-3.25 -1.125 -3.25 -1.125 0 0 Z " fill="#0F1011" transform="translate(739.25,441.125)"/>
<path d="M0 0 C0.33 0 0.66 0 1 0 C1.33 3.96 1.66 7.92 2 12 C2.33 12 2.66 12 3 12 C3 14.97 3 17.94 3 21 C2.01 20.67 1.02 20.34 0 20 C0 13.4 0 6.8 0 0 Z " fill="#212122" transform="translate(370,412)"/>
<path d="M0 0 C2.58148508 0.35606691 3.82045747 0.83328193 5.75 2.625 C7.47331403 5.89929666 7.33159028 8.3525069 7 12 C6.01 13.485 6.01 13.485 5 15 C4.34 15 3.68 15 3 15 C3.08378906 14.38511719 3.16757812 13.77023437 3.25390625 13.13671875 C3.35574219 12.32847656 3.45757813 11.52023437 3.5625 10.6875 C3.71912109 9.48673828 3.71912109 9.48673828 3.87890625 8.26171875 C4.14755178 5.83182884 4.14755178 5.83182884 3 3 C1.50014391 1.33289654 1.50014391 1.33289654 0 0 Z " fill="#0E0E10" transform="translate(839,409)"/>
<path d="M0 0 C3.29894706 0.89160731 4.75087499 1.66496981 6.8125 4.4375 C8.44529318 9.33587954 8.24577541 13.88423032 8 19 C7.67 19 7.34 19 7 19 C6.98582031 18.443125 6.97164062 17.88625 6.95703125 17.3125 C6.56067744 10.97083899 4.63456714 7.12031925 1 2 C0.67 1.34 0.34 0.68 0 0 Z " fill="#0A0B0D" transform="translate(841,536)"/>
<path d="M0 0 C5.61 0 11.22 0 17 0 C13.16811382 2.55459078 9.60878017 3.50149366 4.98828125 2.61328125 C3.30809119 2.13274008 1.65101684 1.57280176 0 1 C0 0.67 0 0.34 0 0 Z " fill="#08080A" transform="translate(732,476)"/>
<path d="M0 0 C3 3 3 3 3.29296875 6.13671875 C3.25816406 7.30847656 3.22335937 8.48023438 3.1875 9.6875 C3.16042969 10.86699219 3.13335938 12.04648437 3.10546875 13.26171875 C3.07066406 14.16535156 3.03585937 15.06898438 3 16 C2.34 16 1.68 16 1 16 C0.67 10.72 0.34 5.44 0 0 Z " fill="#0A0B0C" transform="translate(903,442)"/>
<path d="M0 0 C-3.0817499 2.05449993 -5.3095757 2.74475809 -8.875 3.625 C-9.90367187 3.88539063 -10.93234375 4.14578125 -11.9921875 4.4140625 C-14.75879061 4.95301116 -17.19284196 5.11394368 -20 5 C-14.9627206 -0.0372794 -6.75857553 -0.37547642 0 0 Z " fill="#0E0E10" transform="translate(544,447)"/>
<path d="M0 0 C0.825 0.495 1.65 0.99 2.5 1.5 C6.75488188 3.32352081 9.42308671 3.23673689 14 3 C14 3.66 14 4.32 14 5 C10.81458315 6.59270842 7.46702488 6.39055419 4 6 C1.5 4.6875 1.5 4.6875 0 3 C0 2.01 0 1.02 0 0 Z " fill="#0C0D0F" transform="translate(827,422)"/>
<path d="M0 0 C0.33 0 0.66 0 1 0 C1.66 5.28 2.32 10.56 3 16 C-1.03605548 11.96394452 -0.88455365 8.65526606 -1.125 3.125 C-1 1 -1 1 0 0 Z " fill="#0C0D0F" transform="translate(825,543)"/>
<path d="M0 0 C-1 2 -1 2 -3.36328125 2.88671875 C-4.33652344 3.15097656 -5.30976562 3.41523438 -6.3125 3.6875 C-7.76076172 4.09548828 -7.76076172 4.09548828 -9.23828125 4.51171875 C-11.95205711 4.99152353 -13.43665005 4.90721887 -16 4 C-10.44087515 1.54115632 -6.15815577 -0.17105988 0 0 Z " fill="#0F0F11" transform="translate(530,420)"/>
<path d="M0 0 C0.7425 1.0828125 0.7425 1.0828125 1.5 2.1875 C4.58567566 5.65888511 7.99631864 7.7163468 12 10 C11.01 10.33 10.02 10.66 9 11 C5.51013529 9.22445479 2.75847687 7.75847687 0 5 C-0.125 2.375 -0.125 2.375 0 0 Z " fill="#0E0F11" transform="translate(393,548)"/>
<path d="M0 0 C3.96 0 7.92 0 12 0 C12.33 0.66 12.66 1.32 13 2 C9.37 2 5.74 2 2 2 C1.67 2.99 1.34 3.98 1 5 C0.67 5 0.34 5 0 5 C0 3.35 0 1.7 0 0 Z " fill="#060709" transform="translate(804,434)"/>
<path d="M0 0 C0.80824219 0.10183594 1.61648438 0.20367187 2.44921875 0.30859375 C3.06410156 0.39238281 3.67898438 0.47617187 4.3125 0.5625 C4.3125 1.2225 4.3125 1.8825 4.3125 2.5625 C0.3525 2.5625 -3.6075 2.5625 -7.6875 2.5625 C-8.0175 3.2225 -8.3475 3.8825 -8.6875 4.5625 C-8.375 2.625 -8.375 2.625 -7.6875 0.5625 C-4.59271121 -0.46909626 -3.16118607 -0.41232862 0 0 Z " fill="#070809" transform="translate(772.6875,433.4375)"/>
<path d="M0 0 C0 0.33 0 0.66 0 1 C-1.10408203 1.18175781 -1.10408203 1.18175781 -2.23046875 1.3671875 C-3.20628906 1.53476562 -4.18210937 1.70234375 -5.1875 1.875 C-6.15042969 2.03742188 -7.11335937 2.19984375 -8.10546875 2.3671875 C-10.91032604 2.98039517 -13.37224747 3.85666343 -16 5 C-15 2 -15 2 -11.9375 0.25 C-7.69360318 -1.44931968 -4.4228368 -0.85352991 0 0 Z " fill="#0A0A0C" transform="translate(735,434)"/>
<path d="M0 0 C0.66 0.33 1.32 0.66 2 1 C-0.97 4.63 -3.94 8.26 -7 12 C-7.33 11.01 -7.66 10.02 -8 9 C-5.36 6.03 -2.72 3.06 0 0 Z " fill="#0D0E0F" transform="translate(684,417)"/>
<path d="M0 0 C-0.33 0.99 -0.66 1.98 -1 3 C-3.0625 3.6875 -3.0625 3.6875 -5 4 C-5.33 6.31 -5.66 8.62 -6 11 C-6.66 11 -7.32 11 -8 11 C-8.3125 8.3125 -8.3125 8.3125 -8 5 C-3.97826087 0 -3.97826087 0 0 0 Z " fill="#0C0C0E" transform="translate(833,408)"/>
<path d="M0 0 C3.46827222 0.28902269 4.80653554 0.81671788 7.375 3.25 C9 6 9 6 8.75 8.8125 C8.5025 9.534375 8.255 10.25625 8 11 C7.67 11 7.34 11 7 11 C6.6596875 9.6696875 6.6596875 9.6696875 6.3125 8.3125 C4.82811487 4.56619468 2.97596515 2.66270566 0 0 Z " fill="#0C0D0F" transform="translate(971,530)"/>
<path d="M0 0 C2.52475462 2.52475462 3.04307871 4.73497997 4.125 8.125 C4.47820313 9.22070312 4.83140625 10.31640625 5.1953125 11.4453125 C5.46085938 12.28835938 5.72640625 13.13140625 6 14 C5.01 14 4.02 14 3 14 C-0.44419134 4.58997722 -0.44419134 4.58997722 0 0 Z " fill="#0A0B0D" transform="translate(767,444)"/>
<path d="M0 0 C0.60328125 0.19851563 1.2065625 0.39703125 1.828125 0.6015625 C1.10496094 1.21644531 1.10496094 1.21644531 0.3671875 1.84375 C-0.26445313 2.38257813 -0.89609375 2.92140625 -1.546875 3.4765625 C-2.17335938 4.01023437 -2.79984375 4.54390625 -3.4453125 5.09375 C-4.73024151 6.21588257 -5.96559475 7.39528225 -7.171875 8.6015625 C-7.484375 6.3515625 -7.484375 6.3515625 -7.171875 3.6015625 C-3.20316532 -0.58763105 -3.20316532 -0.58763105 0 0 Z " fill="#0F1012" transform="translate(996.171875,547.3984375)"/>
<path d="M0 0 C2.32240046 2.85021875 3.93906527 5.46355091 5 9 C4.625 11.3125 4.625 11.3125 4 13 C0.90576832 9.90576832 0.06293995 6.4476188 -0.125 2.125 C-0.08375 1.42375 -0.0425 0.7225 0 0 Z " fill="#0D0D0F" transform="translate(739,539)"/>
<path d="M0 0 C0.33 0 0.66 0 1 0 C1 1.98 1 3.96 1 6 C-2.85756507 8.15305957 -5.55129785 9.39253254 -10 9 C-7.7858824 7.19590418 -6.02979136 6.01039234 -3.3125 5.0625 C-0.80693523 4.23787497 -0.80693523 4.23787497 -0.1875 1.875 C-0.125625 1.25625 -0.06375 0.6375 0 0 Z " fill="#090A0C" transform="translate(757,477)"/>
<path d="M0 0 C0.66 0 1.32 0 2 0 C5.44419134 9.41002278 5.44419134 9.41002278 5 14 C2.96470413 11.96470413 2.3615728 10.76582618 1.375 8.125 C1.11460937 7.44695312 0.85421875 6.76890625 0.5859375 6.0703125 C0 4 0 4 0 0 Z " fill="#0C0D0F" transform="translate(779,439)"/>
<path d="M0 0 C0.33 0 0.66 0 1 0 C0.45144652 4.571279 -0.41744803 8.67435795 -2 13 C-2.66 13 -3.32 13 -4 13 C-3.71517632 11.58194169 -3.42181856 10.16559621 -3.125 8.75 C-2.96257813 7.96109375 -2.80015625 7.1721875 -2.6328125 6.359375 C-2.00849925 4.03168856 -1.15161458 2.10968048 0 0 Z " fill="#0B0C0E" transform="translate(766,544)"/>
<path d="M0 0 C0.33 0 0.66 0 1 0 C0.67 2.31 0.34 4.62 0 7 C-2.97 7 -5.94 7 -9 7 C-8.67 6.34 -8.34 5.68 -8 5 C-7.030625 4.87625 -6.06125 4.7525 -5.0625 4.625 C-1.88417172 4.3508355 -1.88417172 4.3508355 -0.625 1.9375 C-0.41875 1.298125 -0.2125 0.65875 0 0 Z " fill="#040507" transform="translate(802,479)"/>
<path d="M0 0 C0.99 0.33 1.98 0.66 3 1 C1.89902432 2.12812303 0.79408444 3.25237811 -0.3125 4.375 C-0.92738281 5.00148438 -1.54226563 5.62796875 -2.17578125 6.2734375 C-4 8 -4 8 -7 10 C-7.99 9.67 -8.98 9.34 -10 9 C-9.36191406 8.51789063 -8.72382813 8.03578125 -8.06640625 7.5390625 C-7.24011719 6.90742188 -6.41382813 6.27578125 -5.5625 5.625 C-4.73878906 4.99851562 -3.91507812 4.37203125 -3.06640625 3.7265625 C-0.91471908 2.16246096 -0.91471908 2.16246096 0 0 Z " fill="#0B0C0E" transform="translate(367,458)"/>
<path d="M0 0 C-0.33 0.99 -0.66 1.98 -1 3 C-4.63 3.33 -8.26 3.66 -12 4 C-7.54525018 0.65893764 -5.37994478 -0.14540391 0 0 Z " fill="#101113" transform="translate(528,551)"/>
<path d="M0 0 C1.53166168 4.08443115 0.63081652 7.79455657 0 12 C-0.66 11.67 -1.32 11.34 -2 11 C-2.05399736 9.54207116 -2.09279177 8.08357288 -2.125 6.625 C-2.15980469 5.40683594 -2.15980469 5.40683594 -2.1953125 4.1640625 C-2 2 -2 2 0 0 Z " fill="#0B0C0E" transform="translate(699,541)"/>
<path d="M0 0 C-1.4317616 0.69937202 -2.87067032 1.38412718 -4.3125 2.0625 C-5.51326172 2.63677734 -5.51326172 2.63677734 -6.73828125 3.22265625 C-9 4 -9 4 -12 3 C-10.75823305 2.29773859 -9.50614401 1.61370891 -8.25 0.9375 C-7.20585937 0.36322266 -7.20585937 0.36322266 -6.140625 -0.22265625 C-3.63859372 -1.1312406 -2.4667645 -0.88336837 0 0 Z " fill="#0C0D0E" transform="translate(515,418)"/>
<path d="M0 0 C2.1640625 -0.29296875 2.1640625 -0.29296875 4.625 -0.1875 C5.44226563 -0.16042969 6.25953125 -0.13335937 7.1015625 -0.10546875 C8.04128906 -0.05326172 8.04128906 -0.05326172 9 0 C9 0.66 9 1.32 9 2 C5.37 2.33 1.74 2.66 -2 3 C-1.34 2.01 -0.68 1.02 0 0 Z " fill="#0E0F10" transform="translate(410,408)"/>
<path d="M0 0 C0.66 0.33 1.32 0.66 2 1 C1.02526874 2.66926454 0.04510211 4.33535642 -0.9375 6 C-1.75541016 7.3921875 -1.75541016 7.3921875 -2.58984375 8.8125 C-3.05519531 9.534375 -3.52054687 10.25625 -4 11 C-4.33 11 -4.66 11 -5 11 C-5.39169887 8.33644766 -5.40564529 6.60775627 -3.88671875 4.33203125 C-2.63610683 2.8489112 -1.32135486 1.42045648 0 0 Z " fill="#0C0C0E" transform="translate(378,392)"/>
<path d="M0 0 C3.93774177 -0.36630156 5.56539771 -0.30233203 8.875 2 C9.926875 2.99 9.926875 2.99 11 4 C10.67 4.66 10.34 5.32 10 6 C9.0925 5.525625 8.185 5.05125 7.25 4.5625 C4.73572051 3.35371179 2.70431791 2.52006114 0 2 C0 1.34 0 0.68 0 0 Z " fill="#0C0D0F" transform="translate(713,534)"/>
<path d="M0 0 C-0.33 2.31 -0.66 4.62 -1 7 C-1.66 6.67 -2.32 6.34 -3 6 C-2.67 4.68 -2.34 3.36 -2 2 C-3.32 2 -4.64 2 -6 2 C-6 1.34 -6 0.68 -6 0 C-3 -1 -3 -1 0 0 Z " fill="#111213" transform="translate(954,530)"/>
<path d="M0 0 C3.28788824 3.11016455 5.83735988 6.01618925 8 10 C4.20401451 8.50871999 2.28279601 6.34266559 0 3 C0 2.01 0 1.02 0 0 Z " fill="#0B0C0E" transform="translate(679,469)"/>
<path d="M0 0 C2 0 2 0 3.875 1.8125 C4.57625 2.534375 5.2775 3.25625 6 4 C7.31558703 5.02323436 8.64377755 6.03126968 10 7 C6.4257023 6.67506385 4.44287547 6.36129314 1.625 4.0625 C0 2 0 2 0 0 Z " fill="#0A0B0D" transform="translate(820,560)"/>
<path d="M0 0 C0.66 0 1.32 0 2 0 C1.75 1.875 1.75 1.875 1 4 C-0.8125 5.3125 -0.8125 5.3125 -3 6 C-5.25 5.625 -5.25 5.625 -7 5 C-6.030625 4.54625 -5.06125 4.0925 -4.0625 3.625 C-0.92920418 2.34213779 -0.92920418 2.34213779 0 0 Z " fill="#0B0C0E" transform="translate(680,560)"/>
<path d="M0 0 C0.33 0 0.66 0 1 0 C0.25 6.625 0.25 6.625 -2 10 C-2.99 9.67 -3.98 9.34 -5 9 C-3.35 6.03 -1.7 3.06 0 0 Z " fill="#0B0C0E" transform="translate(690,548)"/>
<path d="M0 0 C1.093125 0.226875 2.18625 0.45375 3.3125 0.6875 C2.25 2.25 2.25 2.25 0.3125 3.6875 C-3.375 3.375 -3.375 3.375 -6.6875 2.6875 C-4.58035839 -0.41123767 -3.86755884 -0.32775922 0 0 Z " fill="#0C0C0E" transform="translate(770.6875,529.3125)"/>
<path d="M0 0 C2.52349243 3.12432397 4.27256146 6.38060496 6 10 C5.01 10.495 5.01 10.495 4 11 C0.125 4.375 0.125 4.375 -1 1 C-0.67 0.67 -0.34 0.34 0 0 Z " fill="#0C0D0F" transform="translate(705,550)"/>
<path d="M0 0 C2.97 0.33 5.94 0.66 9 1 C9 1.33 9 1.66 9 2 C5.37 2.33 1.74 2.66 -2 3 C-1.34 2.01 -0.68 1.02 0 0 Z " fill="#08090B" transform="translate(959,535)"/>
<path d="M0 0 C0.99 0.33 1.98 0.66 3 1 C-1.75 6.75 -1.75 6.75 -4 9 C-3.38461538 3.46153846 -3.38461538 3.46153846 -1.4375 1.125 C-0.963125 0.75375 -0.48875 0.3825 0 0 Z " fill="#0B0C0E" transform="translate(822,534)"/>
<path d="M0 0 C0.33 0 0.66 0 1 0 C0.51171875 6.0546875 0.51171875 6.0546875 0 8 C-0.99 8.66 -1.98 9.32 -3 10 C-2.25 3.375 -2.25 3.375 0 0 Z " fill="#0A0B0D" transform="translate(809,460)"/>
<path d="M0 0 C1.0326802 2.78823655 1.04509293 3.8677274 0.0625 6.75 C-0.288125 7.4925 -0.63875 8.235 -1 9 C-1.66 9 -2.32 9 -3 9 C-2.5020163 5.26512223 -2.12508244 3.18762365 0 0 Z " fill="#0B0C0E" transform="translate(770,534)"/>
<path d="M0 0 C0.33 0.99 0.66 1.98 1 3 C-1.25 5.0625 -1.25 5.0625 -4 7 C-6.3125 6.75 -6.3125 6.75 -8 6 C-7.05125 5.38125 -6.1025 4.7625 -5.125 4.125 C-2.05554891 2.18029031 -2.05554891 2.18029031 0 0 Z " fill="#0E0F10" transform="translate(383,465)"/>
<path d="M0 0 C2.97 0 5.94 0 9 0 C8.34 1.32 7.68 2.64 7 4 C7 3.34 7 2.68 7 2 C4.69 1.67 2.38 1.34 0 1 C0 0.67 0 0.34 0 0 Z " fill="#050608" transform="translate(736,530)"/>
<path d="M0 0 C0.99 0 1.98 0 3 0 C3 2.97 3 5.94 3 9 C0.23776722 6.23776722 0.42143709 3.79293383 0 0 Z " fill="#060709" transform="translate(866,434)"/>
<path d="M0 0 C1.9453125 -0.29296875 1.9453125 -0.29296875 4.125 -0.1875 C5.40375 -0.125625 6.6825 -0.06375 8 0 C4.55549263 2.29633824 2.06187717 2.54016485 -2 3 C-1.34 2.01 -0.68 1.02 0 0 Z " fill="#060709" transform="translate(710,529)"/>
<path d="M0 0 C0.66 0.33 1.32 0.66 2 1 C2.125 3.875 2.125 3.875 2 7 C1.34 7.66 0.68 8.32 0 9 C-1.15941038 5.52176885 -0.70820884 3.54104422 0 0 Z " fill="#0F1011" transform="translate(389,449)"/>
</svg>
